<?xml version="1.0" encoding="UTF-8"?>
<svg version="1.1" xmlns="http://www.w3.org/2000/svg" width="400" height="100">
<path d="M0 0 C4.1033262 0.76502692 4.32058296 1.00855229 6.57421875 4.203125 C7.09008545 4.92927002 7.60595215 5.65541504 8.13745117 6.40356445 C10.54086917 9.94490568 12.89037106 13.51380738 15.1875 17.125 C16.09308411 18.54079073 16.99933716 19.9561538 17.90625 21.37109375 C18.35226563 22.06702637 18.79828125 22.76295898 19.2578125 23.47998047 C21.69448409 27.24234121 24.18980179 30.96547197 26.6875 34.6875 C26.70731934 33.86548096 26.72713867 33.04346191 26.74755859 32.1965332 C26.84294603 28.46403874 26.95257089 24.7320933 27.0625 21 C27.0934375 19.70642578 27.124375 18.41285156 27.15625 17.08007812 C27.19492188 15.83291016 27.23359375 14.58574219 27.2734375 13.30078125 C27.3048584 12.15391846 27.3362793 11.00705566 27.36865234 9.82543945 C27.707175 6.49386852 28.22885564 3.14614436 30.6875 0.6875 C33.625 0.5 33.625 0.5 36.6875 0.6875 C39.23023722 3.23023722 38.9401488 4.13189439 38.94628906 7.65625 C38.95259338 8.69072266 38.95889771 9.72519531 38.96539307 10.79101562 C38.9613446 11.91185547 38.95729614 13.03269531 38.953125 14.1875 C38.95599518 15.90743164 38.95599518 15.90743164 38.95892334 17.66210938 C38.96028622 20.08984598 38.95658267 22.51758984 38.94824219 24.9453125 C38.93754438 28.67204073 38.94813431 32.39828686 38.9609375 36.125 C38.95961592 38.47916774 38.95705357 40.83333517 38.953125 43.1875 C38.95717346 44.30833984 38.96122192 45.42917969 38.96539307 46.58398438 C38.95908875 47.61845703 38.95278442 48.65292969 38.94628906 49.71875 C38.94469788 50.63205078 38.94310669 51.54535156 38.94146729 52.48632812 C38.6875 54.6875 38.6875 54.6875 36.6875 56.6875 C33.54303211 57.15917018 31.69490346 57.40586619 28.6875 56.6875 C23.32784071 51.29067247 19.49657848 44.93632543 15.5 38.5 C14.27875813 36.5472918 13.05615369 34.59543495 11.83203125 32.64453125 C11.29940674 31.78835205 10.76678223 30.93217285 10.21801758 30.05004883 C8.79329727 27.85081156 7.28718696 25.76178973 5.6875 23.6875 C5.67291748 24.54504883 5.65833496 25.40259766 5.64331055 26.28613281 C5.58214522 29.47710413 5.50797238 32.66743587 5.42504883 35.85791016 C5.39185807 37.23702667 5.36380783 38.61627711 5.34106445 39.99560547 C5.30741358 41.98172306 5.25355271 43.96746559 5.19921875 45.953125 C5.17303467 47.14711914 5.14685059 48.34111328 5.11987305 49.57128906 C4.65683632 52.90850014 4.0958837 54.36167529 1.6875 56.6875 C-1.375 57.0625 -1.375 57.0625 -4.3125 56.6875 C-6.8334627 54.1665373 -6.56914898 53.31506777 -6.5871582 49.82641602 C-6.59669022 48.8151918 -6.60622223 47.80396759 -6.61604309 46.76210022 C-6.61513168 45.66627121 -6.61422028 44.5704422 -6.61328125 43.44140625 C-6.61756638 42.31935287 -6.6218515 41.1972995 -6.62626648 40.04124451 C-6.63201765 37.66479162 -6.63250428 35.28832113 -6.62817383 32.91186523 C-6.62501596 29.26841287 -6.64845694 25.62577363 -6.67382812 21.98242188 C-6.67610117 19.67708436 -6.67680459 17.37174466 -6.67578125 15.06640625 C-6.684991 13.97260147 -6.69420074 12.87879669 -6.70368958 11.75184631 C-6.69434639 10.23028175 -6.69434639 10.23028175 -6.68481445 8.67797852 C-6.68544388 7.78466324 -6.6860733 6.89134796 -6.6867218 5.97096252 C-5.99287951 1.73720898 -4.03464183 0.83737849 0 0 Z " fill="#FFFFFF" transform="translate(149.3125,5.3125)"/>
<path d="M0 0 C1.26392578 -0.02900391 2.52785156 -0.05800781 3.83007812 -0.08789062 C12.83230038 -0.14906621 18.60960395 0.56966831 25.25 7.0625 C31.17910818 15.87146073 31.51402986 24.98136796 30.4375 35.3125 C29.07576654 41.77262836 26.46448835 46.04733992 21.31640625 50.15625 C16.85691708 52.90055103 13.10668579 53.56775771 7.89453125 53.578125 C6.03731445 53.58199219 6.03731445 53.58199219 4.14257812 53.5859375 C2.85802734 53.57820313 1.57347656 53.57046875 0.25 53.5625 C-1.04615234 53.57023437 -2.34230469 53.57796875 -3.67773438 53.5859375 C-4.91201172 53.58335938 -6.14628906 53.58078125 -7.41796875 53.578125 C-8.54871826 53.57586914 -9.67946777 53.57361328 -10.84448242 53.57128906 C-13.5625 53.3125 -13.5625 53.3125 -15.5625 51.3125 C-16.46773668 48.56947474 -16.69220036 46.05007806 -16.70776367 43.17407227 C-16.71414352 42.36966202 -16.72052338 41.56525177 -16.72709656 40.73646545 C-16.72820938 39.87597092 -16.7293222 39.01547638 -16.73046875 38.12890625 C-16.73379715 37.23638657 -16.73712555 36.34386688 -16.74055481 35.42430115 C-16.74561129 33.53897618 -16.74796353 31.65364229 -16.74780273 29.76831055 C-16.74998936 26.88900985 -16.76815896 24.01009233 -16.78710938 21.13085938 C-16.79004356 19.29687631 -16.79202819 17.46289142 -16.79296875 15.62890625 C-16.80015427 14.77043594 -16.80733978 13.91196564 -16.81474304 13.02748108 C-16.76374557 -0.35847967 -12.19805101 0.09134836 0 0 Z M-4.5625 8.3125 C-4.5625 20.5225 -4.5625 32.7325 -4.5625 45.3125 C6.08896907 46.21243567 6.08896907 46.21243567 14.4375 42.3125 C19.74740293 35.18605133 19.33520763 26.81850204 18.4375 18.3125 C17.08396514 14.05381716 15.19795661 11.81947107 11.4375 9.3125 C5.48960535 7.95295375 5.48960535 7.95295375 -4.5625 8.3125 Z " fill="#FFFFFF" transform="translate(215.5625,7.6875)"/>
<path d="M0 0 C4.06012723 4.21363921 5.95723328 9.0927784 8.109375 14.4296875 C8.66688446 15.79252365 8.66688446 15.79252365 9.23565674 17.18289185 C10.01638497 19.09918553 10.79272816 21.01727091 11.56494141 22.93701172 C12.7456282 25.86416147 13.94806573 28.78170894 15.15234375 31.69921875 C15.91019278 33.5671658 16.66674685 35.43563886 17.421875 37.3046875 C17.78118103 38.17157196 18.14048706 39.03845642 18.51068115 39.93161011 C20.43230473 44.76852945 21.61195474 48.70067763 21 54 C19 56 19 56 15.375 56.125 C14.26125 56.08375 13.1475 56.0425 12 56 C11.18501438 54.3970947 10.37310073 52.79262722 9.5625 51.1875 C9.11003906 50.29417969 8.65757813 49.40085938 8.19140625 48.48046875 C7 46 7 46 6 43 C-0.93 42.67 -7.86 42.34 -15 42 C-15.99 45.3 -16.98 48.6 -18 52 C-18.99 53.32 -19.98 54.64 -21 56 C-24.0625 56.375 -24.0625 56.375 -27 56 C-29 54 -29 54 -29.3371582 50.96728516 C-28.91776548 46.03235994 -27.44550943 42.08889307 -25.60546875 37.5234375 C-25.25744705 36.63516266 -24.90942535 35.74688782 -24.55085754 34.83169556 C-23.81576164 32.96209449 -23.07498072 31.09471983 -22.32885742 29.22949219 C-21.19022435 26.3818135 -20.06926651 23.52767198 -18.95117188 20.671875 C-18.23279458 18.85115824 -17.51342677 17.03083192 -16.79296875 15.2109375 C-16.45847214 14.36187836 -16.12397552 13.51281921 -15.77934265 12.63803101 C-9.72279888 -2.45821708 -9.72279888 -2.45821708 0 0 Z M-5 14 C-7.31 20.6 -9.62 27.2 -12 34 C-7.05 34 -2.1 34 3 34 C1.04068712 27.14240492 -1.24334756 20.57678502 -4 14 C-4.33 14 -4.66 14 -5 14 Z " fill="#FFFFFF" transform="translate(115,6)"/>
<path d="M0 0 C4.43921841 0.94606294 4.85224329 1.61639773 7.375 5.1875 C8.54819552 7.04550196 9.69324192 8.92151603 10.8125 10.8125 C11.39773438 11.76640625 11.98296875 12.7203125 12.5859375 13.703125 C14.01984663 16.05931372 15.42718224 18.42752071 16.8125 20.8125 C19.03218526 18.72797499 20.66965011 16.64875055 22.2578125 14.0546875 C22.69480469 13.34699219 23.13179688 12.63929687 23.58203125 11.91015625 C24.25298828 10.80994141 24.25298828 10.80994141 24.9375 9.6875 C25.83481283 8.22587145 26.73319448 6.76489835 27.6328125 5.3046875 C28.02742676 4.65870605 28.42204102 4.01272461 28.82861328 3.34716797 C29.8125 1.8125 29.8125 1.8125 30.8125 0.8125 C34.25 0.5625 34.25 0.5625 37.8125 0.8125 C39.8125 3.8125 39.8125 3.8125 39.58520508 6.23657227 C38.81092419 8.8177532 37.87154624 10.74666467 36.44921875 13.02734375 C35.73668945 14.18073242 35.73668945 14.18073242 35.00976562 15.35742188 C34.51154297 16.14697266 34.01332031 16.93652344 33.5 17.75 C33.01337891 18.53568359 32.52675781 19.32136719 32.02539062 20.13085938 C31.54650391 20.90107422 31.06761719 21.67128906 30.57421875 22.46484375 C29.87196167 23.59708374 29.87196167 23.59708374 29.15551758 24.75219727 C27.8125 26.8125 27.8125 26.8125 25.4921875 29.7109375 C23.04145159 34.23624986 23.25348317 38.43198919 23.25 43.5 C23.24107053 45.37901542 23.21949236 47.25802506 23.18359375 49.13671875 C23.1825061 50.3755481 23.1825061 50.3755481 23.18139648 51.6394043 C22.72497297 54.32810427 21.98019869 55.19872989 19.8125 56.8125 C16.8125 57.3125 16.8125 57.3125 13.8125 56.8125 C10.55789879 53.03416986 10.68145449 50.07179215 10.90429688 45.37744141 C11.42911954 31.65439981 5.23165004 22.86061531 -2.8046875 12.19580078 C-4.46434258 9.33535712 -4.98301931 7.10586161 -5.1875 3.8125 C-3.1875 0.8125 -3.1875 0.8125 0 0 Z " fill="#FFFFFF" transform="translate(253.1875,5.1875)"/>
<path d="M0 0 C1.65 0.33 3.3 0.66 5 1 C5 2.65 5 4.3 5 6 C5.99 6 6.98 6 8 6 C8 6.99 8 7.98 8 9 C7.01 9 6.02 9 5 9 C5 12.63 5 16.26 5 20 C6.32 19.67 7.64 19.34 9 19 C9.391875 18.21625 9.78375 17.4325 10.1875 16.625 C12.88982178 12.71129259 16.53425196 12.15154509 21 11 C19.10820797 10.3185177 19.10820797 10.3185177 17 10 C16.34 10.66 15.68 11.32 15 12 C13.68 12 12.36 12 11 12 C11.375 9.5625 11.375 9.5625 12 7 C14.45382134 5.77308933 16.19984103 5.79824069 18.9375 5.75 C19.81277344 5.72421875 20.68804687 5.6984375 21.58984375 5.671875 C24 6 24 6 25.7734375 7.09765625 C27.58087899 9.90091741 27.52402285 12.38526156 27.6875 15.6875 C27.78611328 17.45673828 27.78611328 17.45673828 27.88671875 19.26171875 C27.92410156 20.16535156 27.96148437 21.06898437 28 22 C24.38709822 22.83425187 21.07933749 23.10842154 17.375 23.0625 C16.43398437 23.05347656 15.49296875 23.04445313 14.5234375 23.03515625 C13.69070312 23.02355469 12.85796875 23.01195313 12 23 C10.33068803 23 8.66124363 23.00593153 6.9921875 23.03515625 C4.99492386 23.06095117 2.99717045 23.03221243 1 23 C0 22 0 22 -0.09765625 19.05859375 C-0.08605469 17.86363281 -0.07445312 16.66867188 -0.0625 15.4375 C-0.05347656 14.23996094 -0.04445312 13.04242188 -0.03515625 11.80859375 C-0.02355469 10.88175781 -0.01195312 9.95492187 0 9 C-0.99 9 -1.98 9 -3 9 C-3 8.01 -3 7.02 -3 6 C-2.01 6 -1.02 6 0 6 C0 4.02 0 2.04 0 0 Z M15 17 C15 17.66 15 18.32 15 19 C16.83700789 19.77242269 16.83700789 19.77242269 19 20 C20.79252059 18.70790088 20.79252059 18.70790088 22 17 C22 16.67 22 16.34 22 16 C18.37114676 15.84850702 18.37114676 15.84850702 15 17 Z " fill="#FFFFFF" transform="translate(162,77)"/>
<path d="M0 0 C0.73347656 -0.020625 1.46695313 -0.04125 2.22265625 -0.0625 C7.58808037 -0.10159234 7.58808037 -0.10159234 10.10546875 1.546875 C11.86341302 4.48351753 11.53880103 6.93959173 11.125 10.25 C9.125 12.1875 9.125 12.1875 7.125 13.25 C7.764375 13.9925 8.40375 14.735 9.0625 15.5 C10.90833407 17.9611121 11.68569174 19.28466926 12.125 22.25 C10.475 22.58 8.825 22.91 7.125 23.25 C6.73828125 22.69570312 6.3515625 22.14140625 5.953125 21.5703125 C5.43234375 20.84585938 4.9115625 20.12140625 4.375 19.375 C3.86453125 18.65570313 3.3540625 17.93640625 2.828125 17.1953125 C1.01944568 14.88191472 1.01944568 14.88191472 -2.875 13.25 C-2.875 16.22 -2.875 19.19 -2.875 22.25 C-4.53114657 22.63218767 -6.19957024 22.96395102 -7.875 23.25 C-9.49700515 21.62799485 -9.0049075 19.82976969 -9.0078125 17.59375 C-9.00910156 16.65402344 -9.01039062 15.71429688 -9.01171875 14.74609375 C-9.00785156 13.75738281 -9.00398438 12.76867187 -9 11.75 C-9.00386719 10.76128906 -9.00773437 9.77257812 -9.01171875 8.75390625 C-9.01042969 7.81417969 -9.00914063 6.87445313 -9.0078125 5.90625 C-9.00668457 5.03806641 -9.00555664 4.16988281 -9.00439453 3.27539062 C-8.69998354 -1.48950296 -3.70517128 0.0257751 0 0 Z M-2.875 3.25 C-2.875 5.56 -2.875 7.87 -2.875 10.25 C1.26593698 10.45970559 1.26593698 10.45970559 5.125 9.25 C5.125 7.6 5.125 5.95 5.125 4.25 C2.41620665 2.89560332 0.11566732 3.18498549 -2.875 3.25 Z " fill="#FFFFFF" transform="translate(49.875,76.75)"/>
<path d="M0 0 C2.6875 1.75 2.6875 1.75 4 4 C3.75 6.25 3.75 6.25 3 8 C1.0625 7.6875 1.0625 7.6875 -1 7 C-1.33 6.01 -1.66 5.02 -2 4 C-3.65 4 -5.3 4 -7 4 C-7.33 4.99 -7.66 5.98 -8 7 C-6.84371094 7.38091797 -6.84371094 7.38091797 -5.6640625 7.76953125 C-4.66117188 8.11371094 -3.65828125 8.45789063 -2.625 8.8125 C-1.12839844 9.31716797 -1.12839844 9.31716797 0.3984375 9.83203125 C3 11 3 11 5 14 C5.4375 16.9375 5.4375 16.9375 5 20 C2.81135039 22.7722895 1.10120108 23.8068385 -2.3828125 24.41796875 C-7.02000878 24.67405272 -9.31642202 24.48252564 -13.1875 21.75 C-15 19 -15 19 -14.8125 16.6875 C-14.544375 16.130625 -14.27625 15.57375 -14 15 C-12.68 15 -11.36 15 -10 15 C-9.7525 15.639375 -9.505 16.27875 -9.25 16.9375 C-8.18591701 19.15640538 -8.18591701 19.15640538 -6 19.8125 C-3.92839876 20.18451089 -3.92839876 20.18451089 -2 19 C-2.15563913 17.02944158 -2.15563913 17.02944158 -3 15 C-5.01631716 13.93349219 -5.01631716 13.93349219 -7.4375 13.375 C-11.82119205 12.17880795 -11.82119205 12.17880795 -14 10 C-14.375 6.5625 -14.375 6.5625 -14 3 C-9.93776507 -1.02513689 -5.39604259 -0.81432815 0 0 Z " fill="#FFFFFF" transform="translate(246,76)"/>
<path d="M0 0 C0.74886475 0.00523682 1.49772949 0.01047363 2.26928711 0.01586914 C3.07817383 0.0190918 3.88706055 0.02231445 4.72045898 0.02563477 C5.5705957 0.03401367 6.42073242 0.04239258 7.29663086 0.05102539 C8.15063477 0.05553711 9.00463867 0.06004883 9.88452148 0.06469727 C12.00108749 0.07652166 14.11761771 0.0944577 16.23413086 0.11352539 C16.23413086 1.10352539 16.23413086 2.09352539 16.23413086 3.11352539 C11.94413086 3.11352539 7.65413086 3.11352539 3.23413086 3.11352539 C3.23413086 5.09352539 3.23413086 7.07352539 3.23413086 9.11352539 C7.19413086 9.11352539 11.15413086 9.11352539 15.23413086 9.11352539 C15.23413086 10.10352539 15.23413086 11.09352539 15.23413086 12.11352539 C11.27413086 12.11352539 7.31413086 12.11352539 3.23413086 12.11352539 C3.23413086 14.42352539 3.23413086 16.73352539 3.23413086 19.11352539 C7.52413086 19.11352539 11.81413086 19.11352539 16.23413086 19.11352539 C16.23413086 20.43352539 16.23413086 21.75352539 16.23413086 23.11352539 C13.25490492 23.14036526 10.27591791 23.16028576 7.29663086 23.17602539 C6.02142578 23.18859375 6.02142578 23.18859375 4.72045898 23.20141602 C3.91157227 23.20463867 3.10268555 23.20786133 2.26928711 23.21118164 C1.52042236 23.21641846 0.77155762 23.22165527 0 23.22705078 C-1.76586914 23.11352539 -1.76586914 23.11352539 -2.76586914 22.11352539 C-2.86486437 20.5639698 -2.89666438 19.00998866 -2.89868164 17.45727539 C-2.8999707 16.51754883 -2.90125977 15.57782227 -2.90258789 14.60961914 C-2.8987207 13.6209082 -2.89485352 12.63219727 -2.89086914 11.61352539 C-2.89473633 10.62481445 -2.89860352 9.63610352 -2.90258789 8.61743164 C-2.90129883 7.67770508 -2.90000977 6.73797852 -2.89868164 5.76977539 C-2.89755371 4.9015918 -2.89642578 4.0334082 -2.89526367 3.13891602 C-2.73133392 0.57295143 -2.57721061 0.16568546 0 0 Z " fill="#FFFFFF" transform="translate(123.765869140625,76.886474609375)"/>
<path d="M0 0 C1.31291016 -0.03867188 1.31291016 -0.03867188 2.65234375 -0.078125 C5.0625 0.25 5.0625 0.25 6.8359375 1.34765625 C8.64337899 4.15091741 8.58652285 6.63526156 8.75 9.9375 C8.84861328 11.70673828 8.84861328 11.70673828 8.94921875 13.51171875 C8.98660156 14.41535156 9.02398437 15.31898437 9.0625 16.25 C5.4530118 17.07183247 2.07555639 17.41225746 -1.625 17.4375 C-2.57761719 17.45167969 -3.53023438 17.46585938 -4.51171875 17.48046875 C-6.9375 17.25 -6.9375 17.25 -8.9375 15.25 C-9.375 12.8125 -9.375 12.8125 -8.9375 10.25 C-5.62850609 7.62226954 -1.9513236 6.46348155 2.0625 5.25 C0.17070797 4.5685177 0.17070797 4.5685177 -1.9375 4.25 C-2.5975 4.91 -3.2575 5.57 -3.9375 6.25 C-5.2575 6.25 -6.5775 6.25 -7.9375 6.25 C-7.5625 3.8125 -7.5625 3.8125 -6.9375 1.25 C-4.48367866 0.02308933 -2.73765897 0.04824069 0 0 Z M-3.9375 11.25 C-3.9375 11.91 -3.9375 12.57 -3.9375 13.25 C-2.10049211 14.02242269 -2.10049211 14.02242269 0.0625 14.25 C1.85502059 12.95790088 1.85502059 12.95790088 3.0625 11.25 C3.0625 10.92 3.0625 10.59 3.0625 10.25 C-0.56635324 10.09850702 -0.56635324 10.09850702 -3.9375 11.25 Z " fill="#FFFFFF" transform="translate(90.9375,82.75)"/>
<path d="M0 0 C2.4375 1.125 2.4375 1.125 4 3 C4.8125 6.125 4.8125 6.125 5 9 C3.26043342 10.73956658 0.8063378 10.37190386 -1.5625 10.5625 C-2.57441406 10.64628906 -3.58632812 10.73007813 -4.62890625 10.81640625 C-5.41136719 10.87699219 -6.19382813 10.93757813 -7 11 C-7 11.66 -7 12.32 -7 13 C-1.44946714 12.25640327 -1.44946714 12.25640327 4 11 C3.625 13.4375 3.625 13.4375 3 16 C-0.48660044 17.74330022 -4.19592935 17.5706106 -8 17 C-11.0625 14.9375 -11.0625 14.9375 -13 12 C-13.7878128 7.5882483 -13.52975133 5.77807226 -11 2.0625 C-6.86686529 -0.77903011 -4.95095859 -0.62869315 0 0 Z M-6.625 4.4375 C-8.11010465 5.77822672 -8.11010465 5.77822672 -8 7 C-5.69 7 -3.38 7 -1 7 C-1.66 5.68 -2.32 4.36 -3 3 C-5.11192937 2.77914204 -5.11192937 2.77914204 -6.625 4.4375 Z " fill="#FFFFFF" transform="translate(216,83)"/>
<path d="M0 0 C2.4375 1.125 2.4375 1.125 4 3 C4.8125 6.125 4.8125 6.125 5 9 C3.26043342 10.73956658 0.8063378 10.37190386 -1.5625 10.5625 C-2.57441406 10.64628906 -3.58632812 10.73007813 -4.62890625 10.81640625 C-5.41136719 10.87699219 -6.19382812 10.93757813 -7 11 C-7 11.66 -7 12.32 -7 13 C-1.44946714 12.25640327 -1.44946714 12.25640327 4 11 C3.625 13.4375 3.625 13.4375 3 16 C-0.48660044 17.74330022 -4.19592935 17.5706106 -8 17 C-11.0625 14.9375 -11.0625 14.9375 -13 12 C-13.7878128 7.5882483 -13.52975133 5.77807226 -11 2.0625 C-6.86686529 -0.77903011 -4.95095859 -0.62869315 0 0 Z M-6.625 4.4375 C-8.11010465 5.77822672 -8.11010465 5.77822672 -8 7 C-5.69 7 -3.38 7 -1 7 C-1.66 5.68 -2.32 4.36 -3 3 C-5.11192937 2.77914204 -5.11192937 2.77914204 -6.625 4.4375 Z " fill="#FFFFFF" transform="translate(76,83)"/>
<path d="M0 0 C3.5060303 0.86943897 4.94966563 2.56083702 6.9375 5.48046875 C7.7253128 9.89222045 7.46725133 11.70239649 4.9375 15.41796875 C1.60161401 17.71139037 -0.16234094 18.23862384 -4.125 17.9609375 C-7.6310303 17.09149853 -9.07466563 15.40010048 -11.0625 12.48046875 C-11.8503128 8.06871705 -11.59225133 6.25854101 -9.0625 2.54296875 C-5.72661401 0.24954713 -3.96265906 -0.27768634 0 0 Z M-4.875 4.48046875 C-6.7125262 7.57524971 -5.7689591 10.07662038 -5.0625 13.48046875 C-3.22549211 14.25289144 -3.22549211 14.25289144 -1.0625 14.48046875 C0.91328739 13.5898566 0.91328739 13.5898566 1.9375 11.48046875 C1.70272801 7.8350503 1.70272801 7.8350503 0.9375 4.48046875 C-1.50851376 3.55267043 -2.53156908 3.18754135 -4.875 4.48046875 Z " fill="#FFFFFF" transform="translate(334.0625,82.51953125)"/>
<path d="M0 0 C3.5060303 0.86943897 4.94966563 2.56083702 6.9375 5.48046875 C7.7253128 9.89222045 7.46725133 11.70239649 4.9375 15.41796875 C1.60161401 17.71139037 -0.16234094 18.23862384 -4.125 17.9609375 C-7.6310303 17.09149853 -9.07466563 15.40010048 -11.0625 12.48046875 C-11.8503128 8.06871705 -11.59225133 6.25854101 -9.0625 2.54296875 C-5.72661401 0.24954713 -3.96265906 -0.27768634 0 0 Z M-4.875 4.48046875 C-6.7125262 7.57524971 -5.7689591 10.07662038 -5.0625 13.48046875 C-3.22549211 14.25289144 -3.22549211 14.25289144 -1.0625 14.48046875 C0.91328739 13.5898566 0.91328739 13.5898566 1.9375 11.48046875 C1.70272801 7.8350503 1.70272801 7.8350503 0.9375 4.48046875 C-1.50851376 3.55267043 -2.53156908 3.18754135 -4.875 4.48046875 Z " fill="#FFFFFF" transform="translate(264.0625,82.51953125)"/>
<path d="M0 0 C0.7734375 0.00386719 1.546875 0.00773437 2.34375 0.01171875 C4.5 0.3125 4.5 0.3125 7.5 2.3125 C7.5 3.6325 7.5 4.9525 7.5 6.3125 C4.47580475 5.72446203 1.48241547 5.08571882 -1.5 4.3125 C1.32164638 6.3483414 1.32164638 6.3483414 4.0625 7.3125 C6.5 8.3125 6.5 8.3125 8.5 10.3125 C8.17028521 13.60964793 7.8773161 14.9351839 5.5 17.3125 C3.22265625 17.61328125 3.22265625 17.61328125 0.5625 17.625 C-0.75041016 17.65013672 -0.75041016 17.65013672 -2.08984375 17.67578125 C-4.5 17.3125 -4.5 17.3125 -6.3359375 15.9296875 C-7.5 14.3125 -7.5 14.3125 -7.1875 12.125 C-6.8471875 11.2278125 -6.8471875 11.2278125 -6.5 10.3125 C-5.9225 10.621875 -5.345 10.93125 -4.75 11.25 C-2.65705816 12.23833364 -0.75464725 12.8293613 1.5 13.3125 C1.5 12.6525 1.5 11.9925 1.5 11.3125 C0.93410156 11.15394531 0.36820313 10.99539062 -0.21484375 10.83203125 C-2.42756716 10.12815965 -4.44841871 9.40294132 -6.5 8.3125 C-7.6875 5.8125 -7.6875 5.8125 -7.5 3.3125 C-5.2666303 0.34176379 -3.64786409 -0.07903706 0 0 Z " fill="#FFFFFF" transform="translate(149.5,82.6875)"/>
<path d="M0 0 C10.7421875 -0.1953125 10.7421875 -0.1953125 14 0 C16 2 16 2 16.1953125 5.4765625 C16.18201493 6.85950968 16.15816232 8.24238654 16.125 9.625 C16.11597656 10.33140625 16.10695313 11.0378125 16.09765625 11.765625 C16.07407603 13.51056098 16.03820461 15.25532295 16 17 C14.35 16.67 12.7 16.34 11 16 C10.95101563 15.21753906 10.90203125 14.43507813 10.8515625 13.62890625 C10.73941406 12.11103516 10.73941406 12.11103516 10.625 10.5625 C10.55539062 9.55316406 10.48578125 8.54382813 10.4140625 7.50390625 C10.27742188 6.67761719 10.14078125 5.85132812 10 5 C9.34 4.67 8.68 4.34 8 4 C7.01 4.495 7.01 4.495 6 5 C5.5316735 7.58605332 5.5316735 7.58605332 5.375 10.5625 C5.26285156 12.08037109 5.26285156 12.08037109 5.1484375 13.62890625 C5.09945313 14.41136719 5.05046875 15.19382812 5 16 C3.35 16.33 1.7 16.66 0 17 C0 11.39 0 5.78 0 0 Z " fill="#FFFFFF" transform="translate(344,83)"/>
<path d="M0 0 C2.475 0.495 2.475 0.495 5 1 C5.04898437 1.78246094 5.09796875 2.56492187 5.1484375 3.37109375 C5.22320312 4.38300781 5.29796875 5.39492187 5.375 6.4375 C5.47941406 7.95150391 5.47941406 7.95150391 5.5859375 9.49609375 C5.72257812 10.32238281 5.85921875 11.14867188 6 12 C6.66 12.33 7.32 12.66 8 13 C8.66 12.67 9.32 12.34 10 12 C10.4683265 9.41394668 10.4683265 9.41394668 10.625 6.4375 C10.69976562 5.42558594 10.77453125 4.41367188 10.8515625 3.37109375 C10.90054687 2.58863281 10.94953125 1.80617188 11 1 C12.65 0.67 14.3 0.34 16 0 C16 5.61 16 11.22 16 17 C5.2578125 17.1953125 5.2578125 17.1953125 2 17 C0 15 0 15 -0.1953125 11.5234375 C-0.18201493 10.14049032 -0.15816232 8.75761346 -0.125 7.375 C-0.11597656 6.66859375 -0.10695313 5.9621875 -0.09765625 5.234375 C-0.07407603 3.48943902 -0.03820461 1.74467705 0 0 Z " fill="#FFFFFF" transform="translate(283,83)"/>
<path d="M0 0 C1.65 0.33 3.3 0.66 5 1 C5 2.65 5 4.3 5 6 C5.99 6 6.98 6 8 6 C8 6.99 8 7.98 8 9 C7.01 9 6.02 9 5 9 C5 12.63 5 16.26 5 20 C6.32 19.67 7.64 19.34 9 19 C9 20.32 9 21.64 9 23 C2.84765625 23.09765625 2.84765625 23.09765625 1 23 C0 22 0 22 -0.09765625 19.05859375 C-0.08605469 17.86363281 -0.07445312 16.66867188 -0.0625 15.4375 C-0.05347656 14.23996094 -0.04445313 13.04242188 -0.03515625 11.80859375 C-0.02355469 10.88175781 -0.01195312 9.95492187 0 9 C-0.99 9 -1.98 9 -3 9 C-3 8.01 -3 7.02 -3 6 C-2.01 6 -1.02 6 0 6 C0 4.02 0 2.04 0 0 Z " fill="#FFFFFF" transform="translate(304,77)"/>
<path d="M0 0 C1.65 0.33 3.3 0.66 5 1 C5 2.65 5 4.3 5 6 C5.99 6 6.98 6 8 6 C8 6.99 8 7.98 8 9 C7.01 9 6.02 9 5 9 C5 12.63 5 16.26 5 20 C6.32 19.67 7.64 19.34 9 19 C9 20.32 9 21.64 9 23 C2.84765625 23.09765625 2.84765625 23.09765625 1 23 C0 22 0 22 -0.09765625 19.05859375 C-0.08605469 17.86363281 -0.07445312 16.66867188 -0.0625 15.4375 C-0.05347656 14.23996094 -0.04445312 13.04242188 -0.03515625 11.80859375 C-0.02355469 10.88175781 -0.01195312 9.95492187 0 9 C-0.99 9 -1.98 9 -3 9 C-3 8.01 -3 7.02 -3 6 C-2.01 6 -1.02 6 0 6 C0 4.02 0 2.04 0 0 Z " fill="#FFFFFF" transform="translate(193,77)"/>
<path d="M0 0 C1.65 0 3.3 0 5 0 C5 7.92 5 15.84 5 24 C3.35 24 1.7 24 0 24 C0 16.08 0 8.16 0 0 Z " fill="#FFFFFF" transform="translate(274,76)"/>
<path d="M0 0 C1.65 0 3.3 0 5 0 C5 7.92 5 15.84 5 24 C3.35 24 1.7 24 0 24 C0 16.08 0 8.16 0 0 Z " fill="#FFFFFF" transform="translate(103,76)"/>
<path d="M0 0 C1.65 0 3.3 0 5 0 C5 5.61 5 11.22 5 17 C3.35 17 1.7 17 0 17 C0 11.39 0 5.78 0 0 Z " fill="#FFFFFF" transform="translate(315,83)"/>
<path d="M0 0 C1.65 0 3.3 0 5 0 C5 1.32 5 2.64 5 4 C3.35 4 1.7 4 0 4 C0 2.68 0 1.36 0 0 Z " fill="#FFFFFF" transform="translate(315,76)"/>
</svg>
